<?xml version="1.0" standalone="no"?>
<!DOCTYPE svg PUBLIC "-//W3C//DTD SVG 20010904//EN"
 "http://www.w3.org/TR/2001/REC-SVG-20010904/DTD/svg10.dtd">
<svg version="1.0" xmlns="http://www.w3.org/2000/svg"
 width="400.000000pt" height="400.000000pt" viewBox="0 0 400.000000 400.000000"
 preserveAspectRatio="xMidYMid meet">
<metadata>
Created by potrace 1.14, written by Peter Selinger 2001-2017
</metadata>
<g transform="translate(0.000000,400.000000) scale(0.100000,-0.100000)"
fill="#000000" stroke="none">
<path d="M1229 3996 c-2 -2 -58 -7 -124 -10 -177 -10 -233 -17 -373 -46 -205
-41 -333 -107 -458 -236 -65 -66 -92 -103 -128 -177 -50 -100 -99 -274 -111
-394 -4 -38 -9 -77 -11 -88 -19 -102 -28 -1691 -12 -1940 32 -480 127 -722
348 -893 120 -93 344 -164 590 -187 187 -17 332 -20 1035 -20 689 0 895 4
1065 20 41 4 62 7 155 22 333 52 555 206 670 466 44 101 66 193 99 427 21 142
31 1673 14 1950 -28 431 -108 672 -277 835 -122 118 -293 195 -511 230 -19 3
-46 7 -60 10 -14 2 -56 7 -95 10 -38 4 -90 9 -115 12 -48 5 -1696 14 -1701 9z
m1686 -329 c17 -3 61 -8 100 -11 38 -4 71 -9 73 -11 2 -2 -20 -18 -49 -35 -30
-17 -116 -69 -193 -115 -76 -47 -139 -85 -141 -85 -2 0 -32 -18 -66 -39 -71
-43 -312 -189 -344 -207 -11 -6 -189 -113 -395 -237 l-375 -226 -437 437
c-241 240 -438 440 -438 444 0 6 18 14 57 23 10 3 45 11 78 20 33 8 87 18 120
21 33 4 63 8 66 10 4 2 69 7 145 10 77 4 141 8 143 10 6 5 1622 -3 1656 -9z
m592 -189 c89 -98 136 -270 159 -573 2 -22 5 -146 9 -275 l5 -236 -66 -39
c-37 -22 -86 -51 -109 -65 -139 -83 -350 -210 -559 -336 -132 -79 -240 -144
-241 -144 -4 0 -109 -64 -135 -83 -13 -9 -31 -17 -40 -17 -8 0 -186 170 -394
379 l-379 379 332 198 c182 110 467 281 633 381 346 207 519 311 557 333 89
53 130 77 160 97 42 28 43 28 68 1z m-2673 -537 l409 -409 -129 -77 c-71 -42
-192 -114 -268 -161 -77 -46 -141 -84 -142 -84 -1 0 -31 -18 -65 -39 -35 -22
-111 -68 -169 -102 -58 -34 -116 -69 -129 -78 l-24 -15 7 459 c3 253 8 474 10
490 3 17 7 59 11 95 3 36 8 76 10 90 3 14 7 41 10 60 12 73 44 180 55 180 3 0
189 -184 414 -409z m1030 -1030 l378 -378 -163 -99 c-90 -55 -168 -101 -174
-104 -6 -3 -320 -191 -699 -419 l-690 -414 -32 37 c-83 96 -127 257 -149 556
-2 25 -6 151 -10 280 l-5 235 67 41 c38 23 84 51 103 62 19 10 56 32 83 48 91
56 312 189 332 200 55 31 504 302 525 317 13 9 31 17 40 17 8 0 185 -170 394
-379z m1813 -348 c-3 -252 -8 -469 -11 -483 -2 -14 -7 -57 -11 -97 -3 -39 -8
-84 -10 -100 -9 -56 -47 -211 -56 -224 -6 -10 -115 92 -420 397 l-411 411 67
41 c36 23 67 42 68 42 2 0 178 106 392 235 215 129 392 234 394 235 2 0 1
-206 -2 -457z m-329 -1148 c-7 -8 -130 -43 -176 -50 -83 -13 -193 -26 -292
-33 -137 -9 -1637 -9 -1760 0 -130 11 -204 19 -208 23 -2 2 20 18 49 35 30 17
191 114 359 215 168 101 439 263 603 362 163 98 354 213 425 255 l127 77 440
-439 c241 -242 437 -442 433 -445z"/>
</g>
</svg>
