<svg width="19" height="15" viewBox="0 0 19 15" fill="none" xmlns="http://www.w3.org/2000/svg">
<path d="M15.7207 0.578517L15.7206 0.578498L15.725 0.577338C16.4845 0.37367 17.313 0.577626 17.8679 1.1325C18.0775 1.34206 18.2422 1.56981 18.3507 1.83945C18.4588 2.10784 18.5 2.38999 18.5 2.69353C18.5 2.90634 18.4841 3.09894 18.4342 3.29216C18.3841 3.4864 18.3056 3.65773 18.2058 3.83436L18.2058 3.83439L18.2018 3.84119C18.1716 3.89281 18.1298 3.94014 18.1188 3.95254C18.1181 3.95338 18.1175 3.95405 18.117 3.95456C18.0958 3.97885 18.0692 4.00813 18.0387 4.04086C17.9774 4.1069 17.8916 4.19697 17.7833 4.30919C17.5663 4.53413 17.2521 4.85492 16.8478 5.26468C16.0387 6.08455 14.8645 7.26466 13.3739 8.75517C13.19 8.93913 13.0131 9.11609 12.8428 9.28632C10.6864 11.443 9.60958 12.5199 9.02272 13.0677C8.71189 13.3579 8.50659 13.5307 8.33293 13.6344C8.162 13.7365 8.01519 13.7709 7.92516 13.792C7.9097 13.7956 7.89592 13.7988 7.88398 13.8019L7.88398 13.8019L7.88204 13.8024C7.34028 13.9411 6.68337 13.8506 6.20624 13.5635L6.20624 13.5635L6.20335 13.5617C6.14711 13.5273 6.08989 13.4781 6.05579 13.4485C6.01089 13.4095 5.95555 13.3592 5.89105 13.2992C5.76154 13.1787 5.58485 13.0092 5.36122 12.7912C4.91341 12.3547 4.26951 11.7158 3.42245 10.8671L3.42237 10.867C3.29229 10.7366 3.16847 10.6125 3.05061 10.4944C1.9299 9.37147 1.3475 8.7879 1.03885 8.43447C0.866023 8.23658 0.746734 8.07559 0.669094 7.90523C0.604305 7.76307 0.576069 7.62362 0.556195 7.52548C0.552797 7.5087 0.549644 7.49313 0.546593 7.47895L0.546362 7.47787C0.359566 6.60036 0.748402 5.68172 1.49821 5.19477L1.49902 5.19425C2.21954 4.72829 3.21158 4.72954 3.92299 5.20963C3.96894 5.24066 4.01756 5.28415 4.04229 5.30627L4.04447 5.30823C4.08279 5.34249 4.13103 5.38701 4.18678 5.4393C4.29874 5.54433 4.44845 5.68773 4.62453 5.85838C4.97709 6.20007 5.44033 6.65581 5.92888 7.14269L5.92915 7.14296L7.34553 8.55668L10.977 4.93124C12.3062 3.60209 13.3161 2.59797 14.0075 1.91828C14.3529 1.57866 14.6203 1.3186 14.8088 1.13901C14.9027 1.04951 14.9793 0.977816 15.0372 0.925501C15.0658 0.899585 15.0928 0.875796 15.1165 0.855971L15.1182 0.854526C15.1325 0.842577 15.1762 0.805968 15.2268 0.777496L15.2291 0.776211C15.3576 0.704817 15.5679 0.62094 15.7207 0.578517ZM6.46408 13.1351C6.82333 13.3513 7.34224 13.4245 7.75804 13.318L3.6433 5.62408C3.10109 5.25818 2.32604 5.25486 1.77054 5.6141C1.19174 5.98999 0.89237 6.70184 1.0354 7.37377C1.05406 7.46045 1.0662 7.52886 1.08582 7.59505C1.18517 7.93015 1.47639 8.20836 3.77635 10.5139C5.46948 12.2103 6.34433 13.0619 6.46408 13.1351Z" fill="white" stroke="#130F21"/>
</svg>
